<?xml version="1.0" encoding="utf-8"?>
<!-- Generator: Adobe Illustrator 25.2.0, SVG Export Plug-In . SVG Version: 6.00 Build 0)  -->
<svg version="1.1" id="Capa_1" xmlns="http://www.w3.org/2000/svg" xmlns:xlink="http://www.w3.org/1999/xlink" x="0px" y="0px"
	 viewBox="0 0 512 512" style="enable-background:new 0 0 512 512;" xml:space="preserve">
<style type="text/css">
	.st0{fill:#FFFFFF;}
</style>
<g>
	<path class="st0" d="M112,198.4c18.1,12.1,36.2,24.3,54.4,36.3c0.9,0.6,3.1,0.3,4.1-0.3c22.2-14.7,44.4-29.6,66.6-44.3
		c1.6-0.9,2.6-2.6,2.5-4.5c-0.1-23.7,0-47.4-0.1-71.1c-0.1-0.9-0.2-1.8-0.4-2.7L111,197.3C111.3,197.7,111.6,198.1,112,198.4z"/>
	<polygon class="st0" points="97.5,228.5 97.5,283.5 138.6,256 	"/>
	<path class="st0" d="M275.6,190.5c21.9,14.5,43.8,29.1,65.6,43.8c2.1,1.4,3.4,1.5,5.6,0c17.3-11.7,34.7-23.3,52.1-35
		c0.8-0.5,1.5-1.2,2.4-2l-128.7-85.7v4.1c0,23.1,0,46.1-0.1,69.2C272.4,187.6,273.4,189,275.6,190.5z"/>
	<path class="st0" d="M237.1,322c-22-14.8-44.1-29.5-66.1-44.3c-2.1-1.4-3.5-1.4-5.6,0c-17.1,11.6-34.3,23-51.5,34.5
		c-0.9,0.6-1.7,1.3-3,2.3l128.5,85.7c0.1-1.1,0.2-1.5,0.2-2c0-24.1,0-48.1-0.1-72.2C239.3,324.4,238.4,322.9,237.1,322z"/>
	<path class="st0" d="M256,0C114.6,0,0,114.6,0,256s114.6,256,256,256s256-114.6,256-256S397.4,0,256,0z M436.8,330.5
		c-56.1,37.3-112.2,74.7-168.3,112.2c-9.8,6.5-15,6.6-24.6,0.1C187.1,405,130.4,367.2,73.7,329.4c-6.4-4.3-9.3-9.8-9.3-17.5
		c0.1-37.2,0.1-74.3,0-111.5c0-8.2,3.1-13.8,9.9-18.3c55.8-37,111.5-74.1,167.1-111.2c3.7-2.5,7.7-4.4,11.6-6.5h6
		c3.5,1.9,7.2,3.5,10.5,5.6c55.8,37.1,111.6,74.2,167.3,111.4c5.1,3.4,9.1,7.2,10.8,13.2v122.8C445.9,323.3,441.9,327.2,436.8,330.5
		z"/>
	<polygon class="st0" points="414.5,283.4 414.5,228.5 373.5,256 	"/>
	<path class="st0" d="M312.5,254.8c-18.1-12.1-36.3-24.2-54.3-36.4c-1.9-1.3-3-0.8-4.6,0.3c-17.7,11.9-35.4,23.7-53.1,35.6
		c-0.8,0.6-1.6,1.2-2.3,1.9c19,12.7,37.6,25.2,56.3,37.6c1,0.5,2.2,0.5,3.2,0c3.3-2,6.5-4.2,9.7-6.4l46.6-31.2
		C313.2,255.4,312.9,255.1,312.5,254.8z"/>
	<path class="st0" d="M345.6,277.1c-0.9-0.6-2.9-0.3-3.8,0.3c-22.5,14.9-44.8,29.8-67.2,44.8c-1.1,0.7-1.8,1.9-2,3.1
		c-0.1,24.7-0.1,49.4-0.1,75l128.6-85.7c-0.2-0.4-0.5-0.7-0.8-1C382.1,301.4,363.9,289.2,345.6,277.1z"/>
</g>
</svg>
