<svg xmlns="http://www.w3.org/2000/svg" viewBox="0 0 463 869"><defs><style>.cls-1{fill:#fff;}.cls-2{fill:#59fff1;}.cls-3{fill:#ef75ff;}</style></defs><g id="develop"><g id="móvil"><circle class="cls-1" cx="272" cy="31" r="5"/><path class="cls-1" d="M400,0H65.75A65.83,65.83,0,0,0,0,65.75V806.2A63,63,0,0,0,63,869H400a63,63,0,0,0,63-62.8V62.8A63,63,0,0,0,400,0ZM4,65.75A61.82,61.82,0,0,1,65.75,4h310.5A61.82,61.82,0,0,1,438,65.75v728.5A61.82,61.82,0,0,1,376.25,856H65.75A61.82,61.82,0,0,1,4,794.25V65.75Z"/><path class="cls-1" d="M74.4,834.17H367.6c25.31,0,45.9-20.95,45.9-46.71V72.54c0-25.76-20.59-46.71-45.9-46.71H335.68a19,19,0,0,0-18.79,19.1,15.16,15.16,0,0,1-4.35,10.7A14.59,14.59,0,0,1,302.09,60H139.91a15,15,0,0,1-14.8-15.11,19.15,19.15,0,0,0-5.49-13.49,18.49,18.49,0,0,0-13.3-5.61H74.4c-25.31,0-45.9,21-45.9,46.71V787.46C28.5,813.22,49.09,834.17,74.4,834.17ZM32.5,72.54C32.5,49,51.3,29.83,74.4,29.83h31.92a14.55,14.55,0,0,1,10.44,4.41,15.16,15.16,0,0,1,4.35,10.69A19,19,0,0,0,139.91,64H302.09a18.55,18.55,0,0,0,13.31-5.61,19.17,19.17,0,0,0,5.49-13.5,15,15,0,0,1,14.79-15.1H367.6c23.1,0,41.9,19.16,41.9,42.71V787.46c0,23.55-18.8,42.71-41.9,42.71H74.4c-23.1,0-41.9-19.16-41.9-42.71Z"/><path class="cls-1" d="M191,36h60a5,5,0,0,0,0-10H191a5,5,0,0,0,0,10Z"/></g><g id="CSS"><path class="cls-2" d="M91,629.5h75a3.5,3.5,0,0,0,0-7H91a3.5,3.5,0,0,0,0,7Z"/><path class="cls-2" d="M197,629.5H306a3.5,3.5,0,0,0,0-7H197a3.5,3.5,0,0,0,0,7Z"/><path class="cls-2" d="M306,652.5H140a3.5,3.5,0,0,0,0,7H306a3.5,3.5,0,0,0,0-7Z"/><path class="cls-2" d="M91,659.5h20a3.5,3.5,0,0,0,0-7H91a3.5,3.5,0,0,0,0,7Z"/><path class="cls-2" d="M259,682.5H239a3.5,3.5,0,0,0,0,7h20a3.5,3.5,0,0,0,0-7Z"/><path class="cls-2" d="M338,682.5H282a3.5,3.5,0,0,0,0,7h56a3.5,3.5,0,0,0,0-7Z"/><path class="cls-2" d="M210,682.5H91a3.5,3.5,0,0,0,0,7H210a3.5,3.5,0,0,0,0-7Z"/><g id="símbolo"><path class="cls-2" d="M104.85,550.53a18.52,18.52,0,0,0,4.22,2.92,21,21,0,0,0,9.45,2,22.08,22.08,0,0,0,9.93-2.15,21.22,21.22,0,0,0,7.27-5.88,26,26,0,0,0,4.43-8.68,36.53,36.53,0,0,0,1.49-10.59c0-8.76-1.83-15.48-5.43-20s-8.87-6.9-15.44-6.9a20.55,20.55,0,0,0-10.68,2.86,26.92,26.92,0,0,0-5.66,4.56l-.23-3.93a2.65,2.65,0,0,0-1.1-2.1,3.27,3.27,0,0,0-1.9-.54H97.11v70.23h7.74Zm6.42-40.06a14.85,14.85,0,0,1,8.15-2.33c4.68,0,8.14,1.52,10.57,4.64s3.75,8.36,3.75,15.37a32.25,32.25,0,0,1-1.07,8.56,18.93,18.93,0,0,1-3.09,6.48,13.62,13.62,0,0,1-5,4.07,16,16,0,0,1-7,1.45,15.84,15.84,0,0,1-7.24-1.59,15.22,15.22,0,0,1-5.49-5.16V516.83A23.34,23.34,0,0,1,111.27,510.47Z"/><path class="cls-2" d="M164.84,525.06h1.5a7.5,7.5,0,0,1,2.66.45,5.24,5.24,0,0,1,1.94,1.23,5.5,5.5,0,0,1,1.24,1.89,6.69,6.69,0,0,1,.44,2.46,28.23,28.23,0,0,1-.45,5.08c-.31,1.71-.65,3.44-1,5.14s-.72,3.5-1,5.26a32.12,32.12,0,0,0-.5,5.69,17.88,17.88,0,0,0,1,6.15,14.66,14.66,0,0,0,3.06,5,14,14,0,0,0,4.94,3.36,17.16,17.16,0,0,0,6.48,1.18h4.25v-3.6a2.49,2.49,0,0,0-1.06-2.07,2.91,2.91,0,0,0-1.69-.57H185a8.48,8.48,0,0,1-3.33-.63,7,7,0,0,1-2.52-1.78,8.55,8.55,0,0,1-1.69-2.89,11.29,11.29,0,0,1-.64-3.93,32.53,32.53,0,0,1,.43-5.25c.3-1.78.63-3.56,1-5.28s.71-3.57,1-5.32a32.91,32.91,0,0,0,.47-5.52,10.26,10.26,0,0,0-.74-3.93,11.59,11.59,0,0,0-1.9-3.12,10.91,10.91,0,0,0-2.4-2.05,10.76,10.76,0,0,0,2.38-2,10.59,10.59,0,0,0,2.66-7.08,32.91,32.91,0,0,0-.47-5.52c-.31-1.75-.64-3.53-1-5.3s-.69-3.47-1-5.25a32.87,32.87,0,0,1-.43-5.3,11.29,11.29,0,0,1,.64-3.93,8.65,8.65,0,0,1,1.69-2.89,7,7,0,0,1,2.52-1.78,8.48,8.48,0,0,1,3.33-.63h1.65a2.91,2.91,0,0,0,1.69-.57,2.47,2.47,0,0,0,1.06-2.07v-3.6h-4.25a17.16,17.16,0,0,0-6.48,1.18,14,14,0,0,0-4.94,3.36,14.66,14.66,0,0,0-3.06,5,17.88,17.88,0,0,0-1,6.15,32.12,32.12,0,0,0,.5,5.69c.32,1.77.66,3.54,1,5.25s.7,3.45,1,5.16a28.12,28.12,0,0,1,.45,5.07,6.65,6.65,0,0,1-.44,2.46,5.5,5.5,0,0,1-1.24,1.89,5.24,5.24,0,0,1-1.94,1.23,7.5,7.5,0,0,1-2.66.45h-1.5v6Z"/><path class="cls-2" d="M226.87,566.8a14.06,14.06,0,0,0,4.95-3.36,14.82,14.82,0,0,0,3.06-5,18.12,18.12,0,0,0,1-6.15,32.12,32.12,0,0,0-.49-5.69c-.33-1.79-.68-3.56-1-5.26s-.7-3.42-1-5.14a28.15,28.15,0,0,1-.45-5.08,6.65,6.65,0,0,1,.44-2.46,5.5,5.5,0,0,1,1.24-1.89,5.37,5.37,0,0,1,1.93-1.23,7.22,7.22,0,0,1,2.63-.45h1.5v-6h-1.5a7.22,7.22,0,0,1-2.63-.45,5.37,5.37,0,0,1-1.93-1.23,5.5,5.5,0,0,1-1.24-1.89,6.65,6.65,0,0,1-.44-2.46,28,28,0,0,1,.45-5.07c.31-1.72.66-3.46,1-5.16s.71-3.45,1-5.25a32.12,32.12,0,0,0,.49-5.69,18.12,18.12,0,0,0-1-6.15,14.72,14.72,0,0,0-3.06-5,14.06,14.06,0,0,0-4.95-3.36,17.16,17.16,0,0,0-6.48-1.18h-4.25v3.6a2.5,2.5,0,0,0,1,2,2.94,2.94,0,0,0,1.75.6h1.65a8.48,8.48,0,0,1,3.33.63,7.09,7.09,0,0,1,2.52,1.78,8.84,8.84,0,0,1,1.7,2.89,11.57,11.57,0,0,1,.63,3.93,31.77,31.77,0,0,1-.43,5.3c-.29,1.76-.62,3.52-1,5.25s-.71,3.55-1,5.3a32.91,32.91,0,0,0-.47,5.52,10.72,10.72,0,0,0,.7,3.93,10.08,10.08,0,0,0,1.9,3.15,11.23,11.23,0,0,0,2.38,2,10.86,10.86,0,0,0-2.39,2.05,10.69,10.69,0,0,0-1.89,3.14,10.54,10.54,0,0,0-.7,3.91,32.91,32.91,0,0,0,.47,5.52c.3,1.75.64,3.54,1,5.32s.69,3.52,1,5.28a31.43,31.43,0,0,1,.43,5.25,11.57,11.57,0,0,1-.63,3.93,8.73,8.73,0,0,1-1.7,2.89,7.09,7.09,0,0,1-2.52,1.78,8.48,8.48,0,0,1-3.33.63h-1.65a2.87,2.87,0,0,0-1.75.6,2.5,2.5,0,0,0-1,2V568h4.25A17.16,17.16,0,0,0,226.87,566.8Z"/></g></g><g id="HTML"><path class="cls-3" d="M91,305.5H263a3.5,3.5,0,0,0,0-7H91a3.5,3.5,0,0,0,0,7Z"/><path class="cls-3" d="M289,305.5h17a3.5,3.5,0,0,0,0-7H289a3.5,3.5,0,0,0,0,7Z"/><path class="cls-3" d="M350,332.5H338a3.5,3.5,0,0,0,0,7h12a3.5,3.5,0,0,0,0-7Z"/><path class="cls-3" d="M316,328.5H91a3.5,3.5,0,0,0,0,7H316a3.5,3.5,0,0,0,0-7Z"/><path class="cls-3" d="M263,358.5H91a3.5,3.5,0,0,0,0,7H263a3.5,3.5,0,0,0,0-7Z"/><g id="símbolo-2" data-name="símbolo"><path class="cls-3" d="M131.19,230.82a3.18,3.18,0,0,0-.59-1.9,4.69,4.69,0,0,0-1.6-1.33l-28.5-15.27-.14-.08.12-.06L129,196.94a4.59,4.59,0,0,0,1.57-1.31,3.22,3.22,0,0,0,.59-1.9v-6.06L89.5,210.24v4l41.69,22.62Z"/><path class="cls-3" d="M146.83,254.09a4.66,4.66,0,0,0,1.85-2.34l32.83-83.62H177.2a4.29,4.29,0,0,0-4.18,3l-32.9,83.73h4.22A4.63,4.63,0,0,0,146.83,254.09Z"/><path class="cls-3" d="M232.5,210.24l-41.69-22.57v6.06A3.63,3.63,0,0,0,193,197l28.61,15.25.09,0-.13.07L193,227.59a4.15,4.15,0,0,0-1.58,1.33,3.39,3.39,0,0,0-.56,1.9v6.05l41.69-22.62Z"/></g></g></g></svg>