<?xml version="1.0" encoding="utf-8"?>
<!-- Generator: Adobe Illustrator 25.2.0, SVG Export Plug-In . SVG Version: 6.00 Build 0)  -->
<svg version="1.1" id="Capa_1" xmlns="http://www.w3.org/2000/svg" xmlns:xlink="http://www.w3.org/1999/xlink" x="0px" y="0px"
	 viewBox="0 0 512 512" style="enable-background:new 0 0 512 512;" xml:space="preserve">
<style type="text/css">
	.st0{fill:#FFFFFF;}
</style>
<path class="st0" d="M256,0c141.4,0,256,117.5,256,262.5C512,379,437.9,477.7,335.4,512l0.1-0.2c0,0-17.3-8.3-16.9-23.1
	c0.4-16.3,0-54.4,0-68.3c0-24-14.8-41-14.8-41s116.1,1.3,116.1-125.7c0-49-25-74.5-25-74.5s13.1-52.3-4.5-74.5
	c-19.8-2.2-55.2,19.4-70.4,29.5c0,0-24-10.1-63.9-10.1s-63.9,10.1-63.9,10.1c-15.1-10.1-50.6-31.7-70.4-29.5
	c-17.7,22.2-4.6,74.5-4.6,74.5s-25,25.5-25,74.5c0,127,116.1,125.7,116.1,125.7c-7.6,9.7-12.6,21.2-14.2,33.4
	c-8.1,2.8-20,6.3-29.7,6.3c-25.2,0-44.4-25.1-51.4-36.7c-6.9-11.5-21.1-21.1-34.4-21.1c-8.7,0-13,4.5-13,9.6s12.2,8.7,20.3,18.1
	c17,20,16.7,64.9,77.3,64.9c6.6,0,20-1.7,30.1-3c-0.1,14.1-0.1,29,0.1,37.8c0.4,14.8-16.9,23.1-16.9,23.1l0.1,0.2
	C74.1,477.7,0,379,0,262.5C0,117.5,114.6,0,256,0z"/>
</svg>
