<?xml version="1.0" encoding="utf-8"?>
<!-- Generator: Adobe Illustrator 25.2.0, SVG Export Plug-In . SVG Version: 6.00 Build 0)  -->
<svg version="1.1" id="Capa_1" xmlns="http://www.w3.org/2000/svg" xmlns:xlink="http://www.w3.org/1999/xlink" x="0px" y="0px"
	 viewBox="0 0 512 512" style="enable-background:new 0 0 512 512;" xml:space="preserve">
<style type="text/css">
	.st0{fill:#FFFFFF;}
</style>
<path class="st0" d="M256,0C114.6,0,0,114.6,0,256s114.6,256,256,256s256-114.6,256-256S397.4,0,256,0z M187.3,391.4
	c0,2.7-2.2,4.9-4.9,4.9h-61.3c-2.7,0-4.9-2.2-4.9-4.9V194.5c0-2.7,2.2-4.9,4.9-4.9h61.3c2.7,0,4.9,2.2,4.9,4.9V391.4z M192.2,132.1
	c0,22.3-18.1,40.4-40.4,40.4c-22.3,0-40.4-18.1-40.4-40.4s18.1-40.4,40.4-40.4C174.1,91.7,192.2,109.8,192.2,132.1
	C192.2,132.1,192.2,132.1,192.2,132.1z M416.6,391.4c0,2.7-2.2,4.9-4.9,4.9h-61.2c-2.7,0-4.9-2.2-4.9-4.9v-95.7
	c0-26.8-2-47.3-26.9-47.3c-22.9,0-31.8,12.8-31.8,45.6v97.4c0,2.7-2.2,4.9-4.9,4.9h-61.2c-2.7,0-4.9-2.2-4.9-4.9V194.5
	c0-2.7,2.2-4.9,4.9-4.9h58.7c2.7,0,4.9,2.2,4.9,4.9v12.8c11-12,29.2-22.6,53.8-22.6c69,0,78.3,49.9,78.3,98.7V391.4z"/>
</svg>
