<svg xmlns="http://www.w3.org/2000/svg" viewBox="0 0 463 869"><defs><style>.cls-1{fill:#fff;}.cls-2{fill:#ef75ff;}.cls-3{fill:#59fff1;}</style></defs><g id="marketing"><g id="móvil"><circle class="cls-1" cx="272" cy="31" r="5"/><path class="cls-1" d="M400,0H65.75A65.83,65.83,0,0,0,0,65.75V806.2A63,63,0,0,0,63,869H400a63,63,0,0,0,63-62.8V62.8A63,63,0,0,0,400,0ZM4,65.75A61.82,61.82,0,0,1,65.75,4h310.5A61.82,61.82,0,0,1,438,65.75v728.5A61.82,61.82,0,0,1,376.25,856H65.75A61.82,61.82,0,0,1,4,794.25V65.75Z"/><path class="cls-1" d="M74.4,834.17H367.6c25.31,0,45.9-20.95,45.9-46.71V72.54c0-25.76-20.59-46.71-45.9-46.71H335.68a19,19,0,0,0-18.79,19.1,15.16,15.16,0,0,1-4.35,10.7A14.59,14.59,0,0,1,302.09,60H139.91a15,15,0,0,1-14.8-15.11,19.15,19.15,0,0,0-5.49-13.49,18.49,18.49,0,0,0-13.3-5.61H74.4c-25.31,0-45.9,21-45.9,46.71V787.46C28.5,813.22,49.09,834.17,74.4,834.17ZM32.5,72.54C32.5,49,51.3,29.83,74.4,29.83h31.92a14.55,14.55,0,0,1,10.44,4.41,15.16,15.16,0,0,1,4.35,10.69A19,19,0,0,0,139.91,64H302.09a18.55,18.55,0,0,0,13.31-5.61,19.17,19.17,0,0,0,5.49-13.5,15,15,0,0,1,14.79-15.1H367.6c23.1,0,41.9,19.16,41.9,42.71V787.46c0,23.55-18.8,42.71-41.9,42.71H74.4c-23.1,0-41.9-19.16-41.9-42.71Z"/><path class="cls-1" d="M191,36h60a5,5,0,0,0,0-10H191a5,5,0,0,0,0,10Z"/></g><g id="altavoz"><path class="cls-2" d="M143.45,556.88l10.16,24,10.16,24q59.16-19.68,99.71-1.11l-17.41-41.08-7.53-17.78-6.7-15.8L213.6,486Q198.74,528.07,143.45,556.88Z"/><rect class="cls-2" x="193.31" y="524.61" width="144.58" height="17.58" rx="8.79" transform="translate(-121.89 986.08) rotate(-112.97)"/><path class="cls-2" d="M114.2,574.29h0a26.17,26.17,0,0,1,26.17,26.17v20.37a0,0,0,0,1,0,0H88a0,0,0,0,1,0,0V600.46A26.17,26.17,0,0,1,114.2,574.29Z" transform="translate(-391.44 935.87) rotate(-112.97)"/><path class="cls-2" d="M129.12,662.11h69.07a0,0,0,0,1,0,0v22.31a0,0,0,0,1,0,0H129.12A11.15,11.15,0,0,1,118,673.27v0A11.15,11.15,0,0,1,129.12,662.11Z" transform="translate(-400.15 1081.51) rotate(-112.97)"/><rect class="cls-2" x="302.31" y="501.97" width="39.04" height="15.45" rx="7.72" transform="translate(-173.36 165.97) rotate(-22.97)"/><path class="cls-2" d="M309.49,464.64,298,487a7.73,7.73,0,0,1-10.82,1.51h0a7.72,7.72,0,0,1-1.51-10.81l11.48-22.34A7.72,7.72,0,0,1,308,453.82h0A7.73,7.73,0,0,1,309.49,464.64Z"/><path class="cls-2" d="M319.6,557.74l24,7.29a7.73,7.73,0,0,0,8.61-6.72h0a7.73,7.73,0,0,0-6.72-8.61l-24-7.29a7.72,7.72,0,0,0-8.61,6.72h0A7.71,7.71,0,0,0,319.6,557.74Z"/></g><g id="corazón"><path class="cls-3" d="M141.85,399.2c-19.66-29.7-55.66-11.57-42.77,19.8,8.63,18.19,26.92,30.66,51.48,43.6,20.08-19.18,34.24-36.19,37.55-56.05C191.91,372.85,152.61,365.25,141.85,399.2Z"/></g><g id="bocadillo_borde_color" data-name="bocadillo borde color"><path id="bocadillo" class="cls-3" d="M327.48,390.73a2.22,2.22,0,0,1-1.36-.47l-39.68-30.7H238.39a15.1,15.1,0,0,1-15.08-15.08V294.63a15.1,15.1,0,0,1,15.08-15.08H339.23a15.1,15.1,0,0,1,15.08,15.08v49.85a15.1,15.1,0,0,1-15.08,15.08h-9.5v28.92a2.22,2.22,0,0,1-1.26,2A2.16,2.16,0,0,1,327.48,390.73ZM238.39,283.55a11.09,11.09,0,0,0-11.08,11.08v49.85a11.09,11.09,0,0,0,11.08,11.08H287a2.18,2.18,0,0,1,1.39.49l37.3,28.85V357.8a2.24,2.24,0,0,1,2.24-2.24h11.26a11.09,11.09,0,0,0,11.08-11.08V294.63a11.09,11.09,0,0,0-11.08-11.08ZM286,359.2l0,0Z"/><g id="_3_puntos" data-name="3 puntos"><circle class="cls-3" cx="257.12" cy="320" r="9.5"/><circle class="cls-3" cx="288.81" cy="320.5" r="9.5"/><circle class="cls-3" cx="320.5" cy="321" r="9.5"/></g></g><g id="bocadillo_bloque_color" data-name="bocadillo bloque color"><path class="cls-3" d="M263.92,159H163.08A13.08,13.08,0,0,0,150,172.08v49.86A13.08,13.08,0,0,0,163.08,235h11.26a.24.24,0,0,1,.24.24v30.68a.24.24,0,0,0,.39.19l40.15-31.06a.24.24,0,0,1,.14,0h48.66A13.08,13.08,0,0,0,277,221.94V172.08A13.08,13.08,0,0,0,263.92,159Zm-82.11,48a10.5,10.5,0,1,1,10.5-10.5A10.51,10.51,0,0,1,181.81,207Zm31.69.5A10.5,10.5,0,1,1,224,197,10.51,10.51,0,0,1,213.5,207.5Zm31.69.5a10.5,10.5,0,1,1,10.5-10.5A10.51,10.51,0,0,1,245.19,208Z"/></g></g></svg>