<svg xmlns="http://www.w3.org/2000/svg" viewBox="0 0 464 869"><defs><style>.cls-1{fill:#fff;}.cls-2{fill:#ef75ff;}.cls-3{fill:#59fff1;}</style></defs><g id="ui"><g id="móvil"><circle class="cls-1" cx="273" cy="31" r="5"/><path class="cls-1" d="M401,0H66.75A65.83,65.83,0,0,0,1,65.75V806.2A63,63,0,0,0,64,869H401a63,63,0,0,0,63-62.8V62.8A63,63,0,0,0,401,0ZM5,65.75A61.82,61.82,0,0,1,66.75,4h310.5A61.82,61.82,0,0,1,439,65.75v728.5A61.82,61.82,0,0,1,377.25,856H66.75A61.82,61.82,0,0,1,5,794.25V65.75Z"/><path class="cls-1" d="M75.4,834.17H368.6c25.31,0,45.9-20.95,45.9-46.71V72.54c0-25.76-20.59-46.71-45.9-46.71H336.68a19,19,0,0,0-18.79,19.1,15.16,15.16,0,0,1-4.35,10.7A14.59,14.59,0,0,1,303.09,60H140.91a15,15,0,0,1-14.8-15.11,19.15,19.15,0,0,0-5.49-13.49,18.49,18.49,0,0,0-13.3-5.61H75.4c-25.31,0-45.9,21-45.9,46.71V787.46C29.5,813.22,50.09,834.17,75.4,834.17ZM33.5,72.54C33.5,49,52.3,29.83,75.4,29.83h31.92a14.55,14.55,0,0,1,10.44,4.41,15.16,15.16,0,0,1,4.35,10.69A19,19,0,0,0,140.91,64H303.09a18.55,18.55,0,0,0,13.31-5.61,19.17,19.17,0,0,0,5.49-13.5,15,15,0,0,1,14.79-15.1H368.6c23.1,0,41.9,19.16,41.9,42.71V787.46c0,23.55-18.8,42.71-41.9,42.71H75.4c-23.1,0-41.9-19.16-41.9-42.71Z"/><path class="cls-1" d="M192,36h60a5,5,0,0,0,0-10H192a5,5,0,0,0,0,10Z"/></g><g id="pantalla"><g id="línea_derecha_cortas" data-name="línea derecha cortas"><path id="línea_4" data-name="línea 4" class="cls-1" d="M353,593H252a2,2,0,0,1,0-4H353a2,2,0,0,1,0,4Z"/><path id="línea_3" data-name="línea 3" class="cls-1" d="M353,557.67H252a2,2,0,0,1,0-4H353a2,2,0,0,1,0,4Z"/><path id="línea_2" data-name="línea 2" class="cls-1" d="M353,522.33H252a2,2,0,0,1,0-4H353a2,2,0,0,1,0,4Z"/><path id="línea_1" data-name="línea 1" class="cls-1" d="M353,487H252a2,2,0,0,1,0-4H353a2,2,0,0,1,0,4Z"/></g><g id="líneas_abajo_largas" data-name="líneas abajo largas"><path id="línea_4-2" data-name="línea 4" class="cls-2" d="M353,753H92a2,2,0,0,1,0-4H353a2,2,0,0,1,0,4Z"/><path id="línea_3-2" data-name="línea 3" class="cls-2" d="M353,718H92a2,2,0,0,1,0-4H353a2,2,0,0,1,0,4Z"/><path id="línea_2-2" data-name="línea 2" class="cls-2" d="M353,683H92a2,2,0,0,1,0-4H353a2,2,0,0,1,0,4Z"/><path id="línea_1-2" data-name="línea 1" class="cls-2" d="M353,648H92a2,2,0,0,1,0-4H353a2,2,0,0,1,0,4Z"/></g><path id="icono_persona" data-name="icono persona" class="cls-2" d="M91.93,484.7V590.63H111v-.13a33.5,33.5,0,0,1,67,0v.13h19.85V484.7ZM145,550a16,16,0,1,1,16-16A16,16,0,0,1,145,550Z"/><path id="icono_paisaje" data-name="icono paisaje" class="cls-3" d="M92,134V395h16.57l27.2-90,22.75-75.27a4.65,4.65,0,0,1,8.9,0L190.17,305l7.7,25.47,2-5.47,20.81-57.83a4.65,4.65,0,0,1,8.75,0L250.19,325l25.18,70H353V134Zm198.5,89A26.5,26.5,0,1,1,317,196.5,26.49,26.49,0,0,1,290.5,223Z"/></g></g></svg>