<?xml version="1.0" encoding="utf-8"?>
<!-- Generator: Adobe Illustrator 25.2.0, SVG Export Plug-In . SVG Version: 6.00 Build 0)  -->
<svg version="1.1" id="Capa_1" xmlns="http://www.w3.org/2000/svg" xmlns:xlink="http://www.w3.org/1999/xlink" x="0px" y="0px"
	 viewBox="0 0 463 869" style="enable-background:new 0 0 463 869;" xml:space="preserve">
<style type="text/css">
	.st0{fill:#FFFFFF;}
</style>
<g id="ux">
	<g id="móvil">
		<circle class="st0" cx="272" cy="31.1" r="5"/>
		<path class="st0" d="M400.2,0H65.8C29.5,0.2,0.2,29.5,0,65.8v740.4C0.2,841,28.2,869,63,869h337c34.8,0,62.8-28,63-62.8V62.8
			C463,28.2,434.7,0,400.2,0z M4.1,65.8c0-34.1,27.6-61.7,61.7-61.7h310.5c34.1,0,61.7,27.6,61.7,61.7v728.4
			c0,34.1-27.6,61.7-61.7,61.7H65.8c-34.1,0-61.7-27.6-61.7-61.7C4.1,794.3,4.1,65.8,4.1,65.8z"/>
		<path class="st0" d="M74.5,834.2h293.3c25.4,0,45.8-20.9,45.8-46.7v-715c0-25.9-20.6-46.7-45.8-46.7h-31.9
			c-10.4,0.2-18.9,8.7-18.7,19.1c0,3.9-1.5,7.8-4.3,10.6c-2.8,2.8-6.5,4.3-10.4,4.3H139.9c-8.3-0.2-14.8-7-14.8-15.2
			c0-5-2-10-5.4-13.5s-8.3-5.4-13.3-5.4H74.5c-25.4,0-45.8,21.1-45.8,46.7v715C28.7,813.4,49.1,834.2,74.5,834.2z M32.6,72.6
			c0-23.5,18.9-42.8,41.9-42.8h31.9c3.9,0,7.6,1.5,10.4,4.3c2.8,2.8,4.3,6.7,4.3,10.6c0,10.4,8.3,18.9,18.9,19.1h162.1
			c5,0,9.8-2,13.3-5.6s5.4-8.5,5.4-13.5c0-8.3,6.5-15,14.8-15.2h31.9c23,0,41.9,19.1,41.9,42.8v715c0,23.5-18.9,42.8-41.9,42.8H74.3
			c-23,0-41.9-19.1-41.9-42.8V72.6H32.6z"/>
		<path class="st0" d="M191.2,36.1h60c2.8,0,5-2.2,5-5s-2.2-5-5-5h-60c-2.8,0-5,2.2-5,5S188.4,36.1,191.2,36.1z"/>
	</g>
	<g id="pantalla">
		<path id="cuadrado_grande_arriba" class="st0" d="M353.9,395.8L353.9,395.8c0-0.2,0-0.2,0-0.4c0-0.2,0-0.2,0-0.4V134
			c0-0.2,0-0.2,0-0.4v-0.2v-0.2c0,0,0-0.2-0.2-0.2c0,0,0,0,0-0.2c-0.2-0.2-0.4-0.4-0.7-0.7c0,0,0,0-0.2,0l-0.2-0.2h-0.2h-0.2
			c-0.2,0-0.2,0-0.4,0H91c-0.2,0-0.2,0-0.4,0h-0.2h-0.2h-0.2h-0.2c-0.2,0.2-0.4,0.4-0.7,0.7c0,0,0,0,0,0.2c0,0,0,0.2-0.2,0.2v0.2
			v0.2c0,0.2,0,0.2,0,0.4v261.4c0,0.2,0,0.2,0,0.4v0.2v0.2c0,0,0,0.2,0.2,0.2c0,0,0,0,0,0.2c0.2,0.2,0.4,0.4,0.7,0.7c0,0,0,0,0.2,0
			h0.2h0.2h0.2c0.2,0,0.2,0,0.4,0h261.1c0.2,0,0.2,0,0.4,0h0.2h0.2l0.2-0.2c0,0,0,0,0.2,0c0.2-0.2,0.4-0.4,0.7-0.7
			C353.7,396,353.9,396,353.9,395.8C353.9,396,353.9,395.8,353.9,395.8z M218.8,264.6L93.2,390.2V138.8L218.8,264.6z M96,136h251.4
			L221.8,261.6L96,136z M221.6,267.4L347.2,393H96L221.6,267.4z M224.4,264.6L350,138.8v251.4L224.4,264.6z"/>
		<path id="cuadrado_pequeño_izquierda" class="st0" d="M198.8,591.6C198.8,591.4,198.8,591.4,198.8,591.6c0-0.2,0-0.2,0.2-0.4
			c0-0.2,0-0.2,0-0.4v-106c0-0.2,0-0.2,0-0.4V484v-0.2v-0.2c0,0,0,0,0-0.2c-0.2-0.2-0.2-0.4-0.4-0.7h-0.2h-0.2h-0.2h-0.2
			c-0.2,0-0.2,0-0.4,0H91c-0.2,0-0.2,0-0.4,0h-0.2h-0.2l-0.2,0.2h-0.2c-0.2,0.2-0.4,0.4-0.7,0.7c0,0,0,0,0,0.2v0.2v0.2v0.2
			c0,0.2,0,0.2,0,0.4v105.8c0,0.2,0,0.2,0,0.4v0.2v0.2v0.2v0.2c0.2,0.2,0.4,0.4,0.7,0.7h0.2c0,0,0.2,0,0.2,0.2h0.2h0.2
			c0.2,0,0.2,0,0.4,0h105.8c0.2,0,0.2,0,0.4,0h0.2h0.2h0.2c0,0,0,0,0.2,0c0.2-0.2,0.4-0.4,0.7-0.7
			C198.6,591.8,198.6,591.8,198.8,591.6L198.8,591.6z M141.2,537.7L93,585.9v-96.2L141.2,537.7z M95.8,486.6H192l-48.2,48.2
			L95.8,486.6z M144,540.5l48,48.2H95.8L144,540.5z M146.9,537.7l48.2-48.2v96.2L146.9,537.7z"/>
		<g id="líneas_cortas_derecha">
			<path id="línea_4" class="st0" d="M352.2,593.1h-101c-1.1,0-2-0.9-2-2s0.9-2,2-2h101c1.1,0,2,0.9,2,2S353.2,593.1,352.2,593.1z"
				/>
			<path id="línea_3" class="st0" d="M352.2,557.7h-101c-1.1,0-2-0.9-2-2c0-1.1,0.9-2,2-2h101c1.1,0,2,0.9,2,2
				C354.1,556.8,353.2,557.7,352.2,557.7z"/>
			<path id="línea_2" class="st0" d="M352.2,522.5h-101c-1.1,0-2-0.9-2-2s0.9-2,2-2h101c1.1,0,2,0.9,2,2
				C354.1,521.6,353.2,522.5,352.2,522.5z"/>
			<path id="línea_1" class="st0" d="M352.2,487.1h-101c-1.1,0-2-0.9-2-2s0.9-2,2-2h101c1.1,0,2,0.9,2,2S353.2,487.1,352.2,487.1z"
				/>
		</g>
		<g id="líneas_largas_abajo">
			<path id="línea_4-2" class="st0" d="M352.2,753H91c-1.1,0-2-0.9-2-2s0.9-2,2-2h261.1c1.1,0,2,0.9,2,2S353.2,753,352.2,753z"/>
			<path id="línea_3-2" class="st0" d="M352.2,718H91c-1.1,0-2-0.9-2-2s0.9-2,2-2h261.1c1.1,0,2,0.9,2,2S353.2,718,352.2,718z"/>
			<path id="línea_2-2" class="st0" d="M352.2,683H91c-1.1,0-2-0.9-2-2s0.9-2,2-2h261.1c1.1,0,2,0.9,2,2S353.2,683,352.2,683z"/>
			<path id="línea_1-2" class="st0" d="M352.2,648.1H91c-1.1,0-2-0.9-2-2s0.9-2,2-2h261.1c1.1,0,2,0.9,2,2S353.2,648.1,352.2,648.1
				z"/>
		</g>
	</g>
</g>
</svg>
