<svg id="Capa_1" data-name="Capa 1" xmlns="http://www.w3.org/2000/svg" viewBox="0 0 529.51 303.54"><defs><style>.cls-1,.cls-2{fill:none;stroke-miterlimit:10;stroke-width:6px;}.cls-1{stroke:#ef75ff;}.cls-2{stroke:#01e6d2;}</style></defs><path class="cls-1" d="M365.71,89.76H384.9l8.87,97.4h.36l9.42-97.4h21.72l9.42,97.4h.36l8.87-97.4h17.2L448.26,216.49h-24.8l-9-85.45h-.36L405,216.49H378.56Z" transform="translate(-362.39 -86.76)"/><path class="cls-1" d="M471.25,89.76h54.32v18.11h-34.4v33.49h27.34v18.1H491.17v38.93h34.4v18.1H471.25Z" transform="translate(-362.39 -86.76)"/><path class="cls-1" d="M537,89.76h30q15.39,0,22.45,7.15t7.06,22V124q0,9.78-3.16,15.93a18.56,18.56,0,0,1-9.69,8.87v.36q14.85,5.07,14.85,26.44v10.86q0,14.67-7.7,22.36t-22.54,7.69H537Zm27.7,51.6q6,0,9-3.08t3-10.32V120.9q0-6.87-2.44-10t-7.7-3.07h-9.59v33.49Zm3.62,57q5.25,0,7.79-2.81t2.53-9.68V174.85q0-8.68-3-12t-9.86-3.35h-8.87v38.93Z" transform="translate(-362.39 -86.76)"/><path class="cls-2" d="M370.42,258.76h30.41q14.85,0,22.27,8t7.42,23.35v64.09q0,15.39-7.42,23.36t-22.27,8H370.42Zm30.05,108.63q4.89,0,7.51-2.9t2.63-9.41v-65.9c0-4.35-.88-7.48-2.63-9.42s-4.25-2.89-7.51-2.89H390.33v90.52Z" transform="translate(-362.39 -86.76)"/><path class="cls-2" d="M443.92,258.76h54.31v18.11h-34.4v33.49h27.34v18.1H463.83v38.93h34.4v18.1H443.92Z" transform="translate(-362.39 -86.76)"/><path class="cls-2" d="M514,379.07q-7.43-8.25-7.42-23.63V348.2h18.82v8.69q0,12.32,10.32,12.31,5.07,0,7.7-3t2.62-9.68a26.84,26.84,0,0,0-3.62-14q-3.61-6.06-13.39-14.57-12.32-10.86-17.2-19.64a40.06,40.06,0,0,1-4.89-19.83q0-15,7.6-23.26T536.61,257q14.29,0,21.63,8.24t7.34,23.63v5.25H546.75v-6.52q0-6.53-2.54-9.51t-7.42-3q-10,0-10,12.13A24,24,0,0,0,530.54,300q3.72,6,13.49,14.48,12.5,10.86,17.2,19.74t4.71,20.82q0,15.57-7.7,23.89t-22.35,8.33Q521.4,387.3,514,379.07Z" transform="translate(-362.39 -86.76)"/><path class="cls-2" d="M577.34,258.76h19.92V385.49H577.34Z" transform="translate(-362.39 -86.76)"/><path class="cls-2" d="M618.26,379.07q-7.6-8.25-7.61-23.63V288.82q0-15.39,7.61-23.63T640.34,257q14.49,0,22.09,8.24t7.6,23.63v10.86H651.21V287.55q0-12.49-10.32-12.49t-10.32,12.49v69.34q0,12.32,10.32,12.31t10.32-12.31V332.08h-10V314H670v41.46q0,15.39-7.6,23.63t-22.09,8.23Q625.87,387.3,618.26,379.07Z" transform="translate(-362.39 -86.76)"/><path class="cls-2" d="M682.89,258.76h25l19.37,75.86h.37V258.76h17.74V385.49H724.89L701,293h-.36v92.51H682.89Z" transform="translate(-362.39 -86.76)"/><path class="cls-2" d="M760.19,258.76H814.5v18.11H780.11v33.49h27.33v18.1H780.11v38.93H814.5v18.1H760.19Z" transform="translate(-362.39 -86.76)"/><path class="cls-2" d="M825.91,258.76h29.51q15.38,0,22.45,7.15t7.06,22v7.78q0,19.74-13,25V321a15.55,15.55,0,0,1,10.23,8.87q3,6.7,3,17.92V370.1a85.59,85.59,0,0,0,.36,8.78,21.8,21.8,0,0,0,1.81,6.61H867a29.11,29.11,0,0,1-1.44-5.79,84.55,84.55,0,0,1-.37-9.78V346.75q0-8.69-2.8-12.13c-1.88-2.29-5.1-3.44-9.69-3.44h-6.88v54.31H825.91Zm27.15,54.32c4,0,7-1,9-3.08s3-5.49,3-10.32V289.9q0-6.87-2.44-10t-7.7-3.07h-9v36.21Z" transform="translate(-362.39 -86.76)"/></svg>